<svg width="18" height="18" viewBox="0 0 18 18" fill="none" xmlns="http://www.w3.org/2000/svg">
<mask id="mask0_2152_1028" style="mask-type:luminance" maskUnits="userSpaceOnUse" x="0" y="0" width="18" height="18">
<path d="M17.8914 0H0V18H17.8914V0Z" fill="white"/>
</mask>
<g mask="url(#mask0_2152_1028)">
<path d="M17.8913 9.20646C17.8913 8.59466 17.841 7.97956 17.7336 7.37769H9.125V10.8434H14.0547C13.8502 11.9612 13.1929 12.95 12.2304 13.5783V15.827H15.1715C16.8986 14.2595 17.8913 11.9447 17.8913 9.20646Z" fill="#4285F4"/>
<path d="M9.12502 18C11.5865 18 13.6624 17.203 15.1748 15.8273L12.2338 13.5785C11.4155 14.1275 10.3591 14.4384 9.12837 14.4384C6.74733 14.4384 4.72848 12.8543 4.00411 10.7246H0.969116V13.0428C2.51848 16.082 5.67419 18 9.12502 18Z" fill="#34A853"/>
<path d="M4.00078 10.7245C3.61847 9.60679 3.61847 8.39642 4.00078 7.27866V4.96045H0.969152C-0.325329 7.50354 -0.325329 10.4997 0.969152 13.0427L4.00078 10.7245Z" fill="#FBBC04"/>
<path d="M9.12502 3.56151C10.4262 3.54167 11.6838 4.02449 12.6261 4.91077L15.2319 2.34122C13.5819 0.813397 11.392 -0.0265819 9.12502 -0.000125925C5.67418 -0.000125925 2.51848 1.91794 0.969116 4.96037L4.00075 7.27859C4.72176 5.14556 6.74398 3.56151 9.12502 3.56151Z" fill="#EA4335"/>
</g>
</svg>
