<svg width="18" height="18" viewBox="0 0 18 18" fill="none" xmlns="http://www.w3.org/2000/svg">
<path fill-rule="evenodd" clip-rule="evenodd" d="M18 9C18 4.02983 13.9701 0 9 0C4.02983 0 0 4.02983 0 9C0 13.4917 3.29071 17.2153 7.59389 17.8913V11.6022H5.30811V9H7.59389V7.01671C7.59389 4.76131 8.93799 3.51466 10.9934 3.51466C11.978 3.51466 13.0083 3.69057 13.0083 3.69057V5.90549H11.873C10.7555 5.90549 10.4061 6.59906 10.4061 7.3116V8.99992H12.9019L12.5033 11.6021H10.406V17.8911C14.7092 17.2165 17.9999 13.493 17.9999 8.99992L18 9Z" fill="#1977F3"/>
<path fill-rule="evenodd" clip-rule="evenodd" d="M12.5033 11.6021L12.9021 8.99992H10.4062V7.3116C10.4062 6.60031 10.7543 5.90549 11.8731 5.90549H13.0084V3.69057C13.0084 3.69057 11.9782 3.51465 10.9935 3.51465C8.93812 3.51465 7.59402 4.76007 7.59402 7.01671V9H5.30823V11.6022H7.59402V17.8912C8.05215 17.9632 8.5217 18 9.00013 18C9.47854 18 9.94809 17.962 10.4062 17.8912V11.6022H12.5034L12.5033 11.6021Z" fill="#FEFEFE"/>
</svg>
